<svg xmlns="http://www.w3.org/2000/svg" viewBox="0 0 24 24">
  <path d="M3 6.5A2.5 2.5 0 0 1 5.5 4L12 9l6.5-5A2.5 2.5 0 0 1 21 6.5v11a2.5 2.5 0 0 1-2.5 2.5H17V9.7l-5 3.8-5-3.8V20H5.5A2.5 2.5 0 0 1 3 17.5v-11Z" fill="#EA4335"/>
  <path d="M17 20V9.7l4-3V17.5a2.5 2.5 0 0 1-2.5 2.5H17Z" fill="#34A853"/>
  <path d="M7 20V9.7L3 6.7V17.5A2.5 2.5 0 0 0 5.5 20H7Z" fill="#4285F4"/>
  <path d="M17 9.7 21 6.7V6.5A2.5 2.5 0 0 0 18.5 4L17 5.1v4.6Z" fill="#FBBC04"/>
  <path d="M7 9.7 3 6.7V6.5A2.5 2.5 0 0 1 5.5 4L7 5.1v4.6Z" fill="#C5221F"/>
</svg>
