<svg preserveAspectRatio="none" overflow="visible" style="display: block;" width="28" height="28" viewBox="0 0 28 28" fill="none" xmlns="http://www.w3.org/2000/svg">
<g id="Frame">
<path id="Vector" d="M25.375 8.75V13.125C25.375 13.3571 25.2828 13.5796 25.1187 13.7437C24.9546 13.9078 24.7321 14 24.5 14C22.6721 14.0042 20.8706 13.5647 19.25 12.7192V17.0625C19.25 19.2671 18.3742 21.3814 16.8153 22.9403C15.2564 24.4992 13.1421 25.375 10.9375 25.375C8.73289 25.375 6.61857 24.4992 5.05967 22.9403C3.50078 21.3814 2.625 19.2671 2.625 17.0625C2.625 13.0266 5.56828 9.45875 9.47187 8.76313C9.59781 8.74074 9.72711 8.74624 9.85069 8.77923C9.97426 8.81222 10.0891 8.8719 10.1871 8.95407C10.2851 9.03624 10.364 9.1389 10.418 9.25482C10.4721 9.37074 10.5001 9.4971 10.5 9.625V14.2942C10.5001 14.4598 10.4531 14.622 10.3646 14.762C10.2762 14.902 10.1498 15.014 10.0002 15.085C9.64648 15.2527 9.34429 15.5123 9.1251 15.8366C8.90592 16.1609 8.77777 16.5381 8.75403 16.9288C8.73029 17.3195 8.81182 17.7095 8.99012 18.0579C9.16843 18.4064 9.43697 18.7006 9.76774 18.91C10.0985 19.1193 10.4794 19.236 10.8706 19.248C11.2619 19.2599 11.6492 19.1667 11.9921 18.978C12.3351 18.7893 12.6211 18.512 12.8203 18.1751C13.0196 17.8382 13.1248 17.4539 13.125 17.0625V2.625C13.125 2.39294 13.2172 2.17038 13.3813 2.00628C13.5454 1.84219 13.7679 1.75 14 1.75H18.375C18.6071 1.75 18.8296 1.84219 18.9937 2.00628C19.1578 2.17038 19.25 2.39294 19.25 2.625C19.2514 4.01694 19.805 5.35146 20.7893 6.33571C21.7735 7.31996 23.1081 7.87355 24.5 7.875C24.7321 7.875 24.9546 7.96719 25.1187 8.13128C25.2828 8.29538 25.375 8.51794 25.375 8.75Z" fill="white"/>
</g>
</svg>
