<svg preserveAspectRatio="none" overflow="visible" style="display: block;" width="28" height="28" viewBox="0 0 28 28" fill="none" xmlns="http://www.w3.org/2000/svg">
<g id="Frame 23">
<g id="Ellipse 13">
<circle cx="14" cy="14" r="14" fill="white" fill-opacity="0.06"/>
<circle cx="14" cy="14" r="13.5" stroke="white" stroke-opacity="0.04"/>
</g>
<g id="Microphone" clip-path="url(#clip0_20_540)">
<g id="Vector">
</g>
<path id="Vector_2" d="M16.5003 10.0004C16.5003 8.61965 15.381 7.50036 14.0003 7.50036C12.6196 7.50036 11.5003 8.61965 11.5003 10.0004V14.0004C11.5003 15.3811 12.6196 16.5004 14.0003 16.5004C15.381 16.5004 16.5003 15.3811 16.5003 14.0004V10.0004Z" stroke="white" stroke-opacity="0.72" stroke-width="1.04126" stroke-linecap="round" stroke-linejoin="round"/>
<path id="Vector_3" d="M14.0003 18.5003V20.5003" stroke="white" stroke-opacity="0.72" stroke-width="1.04126" stroke-linecap="round" stroke-linejoin="round"/>
<path id="Vector_4" d="M18.5 14C18.5 15.1935 18.0259 16.3381 17.182 17.182C16.3381 18.0259 15.1935 18.5 14 18.5C12.8065 18.5 11.6619 18.0259 10.818 17.182C9.97411 16.3381 9.5 15.1935 9.5 14" stroke="white" stroke-opacity="0.72" stroke-width="1.04126" stroke-linecap="round" stroke-linejoin="round"/>
</g>
</g>
<defs>
<clipPath id="clip0_20_540">
<rect width="16" height="16" fill="white" transform="translate(6 6)"/>
</clipPath>
</defs>
</svg>
